<?xml version="1.0" standalone="no"?>
<!DOCTYPE svg PUBLIC "-//W3C//DTD SVG 20010904//EN"
 "http://www.w3.org/TR/2001/REC-SVG-20010904/DTD/svg10.dtd">
<svg version="1.0" xmlns="http://www.w3.org/2000/svg"
 width="500.000000pt" height="500.000000pt" viewBox="0 0 500.000000 500.000000"
 preserveAspectRatio="xMidYMid meet">

<g transform="translate(0.000000,500.000000) scale(0.100000,-0.100000)"
fill="#000000" stroke="none">
<path d="M2450 4641 c-6 -12 -10 -127 -10 -304 l0 -284 -69 -7 c-165 -15 -358
-98 -504 -216 -198 -160 -342 -419 -364 -652 l-6 -68 -54 0 c-47 0 -59 -4 -84
-29 l-29 -29 0 -167 c0 -164 0 -166 25 -189 30 -28 65 -36 149 -36 l62 0 18
-157 c52 -466 221 -1772 237 -1830 14 -53 68 -117 123 -146 41 -22 43 -22 556
-22 l515 0 48 28 c54 32 103 93 116 146 5 20 31 198 56 396 119 922 137 1066
165 1307 17 141 30 261 30 266 0 5 41 12 92 14 88 5 93 7 121 38 l28 32 -3
164 c-3 153 -4 165 -25 186 -16 16 -38 23 -81 26 l-59 4 -12 80 c-40 285 -197
534 -437 694 -136 90 -342 164 -459 164 l-35 0 0 286 c0 177 -4 293 -10 305
-8 14 -21 19 -50 19 -29 0 -42 -5 -50 -19z m-10 -1121 l0 -410 -64 0 -64 0 9
38 c13 56 11 102 -4 102 -26 0 -37 -25 -37 -82 l0 -58 -213 0 c-246 0 -220
-12 -257 118 -11 39 -23 72 -25 72 -2 0 -10 3 -19 6 -29 11 -17 -65 29 -178 6
-16 -1 -18 -84 -18 l-91 0 0 38 c1 116 89 329 189 455 143 180 399 321 594
326 l37 1 0 -410z m263 391 c344 -88 599 -353 663 -689 8 -40 14 -82 14 -93 0
-18 -13 -19 -410 -19 l-410 0 0 410 0 410 33 0 c19 0 68 -9 110 -19z m847
-1026 l0 -105 -1050 0 -1050 0 0 105 0 105 1050 0 1050 0 0 -105z m-240 -230
c0 -3 -54 -439 -120 -968 -74 -593 -126 -974 -135 -995 -8 -17 -29 -41 -47
-52 -32 -19 -51 -20 -508 -20 -453 0 -476 1 -507 20 -18 10 -39 29 -47 42 -11
17 -51 310 -136 985 -66 529 -120 969 -120 978 0 13 88 15 810 15 446 0 810
-2 810 -5z"/>
<path d="M2240 3694 c-39 -45 -55 -78 -47 -98 8 -21 26 -20 34 2 3 9 21 34 40
55 34 38 44 77 19 77 -8 0 -28 -16 -46 -36z"/>
<path d="M2084 3449 c-36 -34 -54 -60 -54 -75 0 -13 4 -24 9 -24 17 0 131 115
131 133 0 30 -30 18 -86 -34z"/>
<path d="M2730 3725 c0 -32 104 -103 134 -92 18 7 22 37 5 37 -6 0 -33 16 -59
35 -50 37 -80 45 -80 20z"/>
<path d="M2727 3584 c-11 -11 -8 -71 5 -99 12 -27 44 -31 41 -5 -10 86 -27
123 -46 104z"/>
<path d="M3030 3548 c0 -46 147 -248 180 -248 30 0 34 19 10 43 -12 12 -52 67
-89 122 -68 101 -101 128 -101 83z"/>
<path d="M2963 3364 c-9 -24 4 -95 21 -112 27 -28 38 -3 25 60 -11 56 -34 82
-46 52z"/>
<path d="M2690 3264 c0 -22 72 -86 132 -119 56 -31 118 -28 118 6 0 11 -7 19
-15 19 -17 0 -172 88 -181 102 -10 15 -54 9 -54 -8z"/>
<path d="M2767 2514 c-93 -7 -173 -14 -178 -16 -8 -3 280 -237 302 -246 5 -2
12 12 17 30 8 33 8 33 -80 100 l-89 66 111 7 c106 7 112 9 121 32 5 13 9 29 9
34 0 10 9 11 -213 -7z"/>
<path d="M1867 2493 c-11 -10 -8 -122 3 -144 6 -10 17 -19 24 -19 10 0 14 19
15 71 1 79 -17 118 -42 92z"/>
<path d="M2307 2437 c-7 -18 7 -88 30 -157 14 -44 23 -56 42 -58 27 -4 27 -12
-9 123 -26 97 -49 129 -63 92z"/>
<path d="M2050 2272 c0 -44 58 -152 81 -152 12 0 19 7 19 20 0 11 -4 20 -8 20
-4 0 -18 32 -31 70 -17 55 -26 70 -42 70 -14 0 -19 -7 -19 -28z"/>
<path d="M2495 2219 c-14 -45 -24 -84 -21 -86 2 -2 82 -28 177 -57 l174 -54
26 81 c27 85 27 88 -17 101 -18 6 -23 0 -34 -39 -7 -25 -16 -48 -20 -50 -6 -4
-67 12 -78 20 -1 1 7 32 19 70 21 70 20 78 -18 89 -20 6 -24 1 -44 -63 -22
-74 -27 -78 -77 -60 l-30 10 15 45 c16 48 13 57 -24 68 -20 6 -24 0 -48 -75z"/>
<path d="M3033 2285 c-3 -9 -3 -54 -1 -100 4 -81 19 -120 42 -112 13 4 8 197
-6 215 -14 16 -27 15 -35 -3z"/>
<path d="M2432 2014 c-18 -59 -32 -108 -30 -109 2 -2 15 -6 30 -10 26 -7 27
-5 58 95 17 56 28 106 23 110 -4 4 -17 11 -28 14 -19 5 -24 -4 -53 -100z"/>
<path d="M2561 1970 c-8 -23 -7 -32 2 -35 10 -3 148 -46 198 -61 12 -3 20 5
28 27 6 18 10 33 9 34 -8 5 -207 65 -216 65 -5 0 -15 -14 -21 -30z"/>
<path d="M2267 1877 c-14 -36 34 -193 61 -201 9 -3 93 -28 185 -56 93 -29 170
-50 172 -48 6 6 54 162 51 165 -1 2 -17 6 -34 9 -30 6 -31 5 -43 -41 -12 -47
-12 -47 -47 -41 -19 3 -39 9 -43 13 -5 5 1 39 13 76 11 37 18 70 15 73 -2 3
-17 6 -32 7 -25 2 -28 -3 -47 -63 -11 -36 -22 -67 -23 -68 -2 -2 -20 1 -40 8
-35 11 -37 15 -32 44 4 17 9 41 13 53 5 18 1 23 -19 28 -35 9 -45 1 -53 -40
-12 -67 -28 -47 -50 63 -7 33 -37 45 -47 19z"/>
<path d="M2920 1814 c0 -9 7 -14 17 -12 25 5 28 28 4 28 -12 0 -21 -6 -21 -16z"/>
<path d="M2074 1726 c-7 -18 19 -102 42 -134 17 -24 54 -30 54 -9 0 8 -3 17
-7 21 -5 4 -17 35 -29 69 -21 62 -48 85 -60 53z"/>
<path d="M2305 1603 c-11 -37 -16 -80 -13 -120 3 -55 8 -67 38 -98 34 -35 103
-65 151 -65 70 0 138 55 168 134 35 95 35 93 0 105 -26 9 -32 8 -36 -7 -2 -9
-14 -42 -26 -72 -38 -95 -125 -117 -200 -50 -28 25 -32 34 -31 79 0 28 3 53 6
57 3 3 23 1 44 -5 21 -6 39 -9 41 -7 1 1 6 16 9 33 6 30 5 31 -50 47 -30 9
-62 19 -70 22 -10 4 -19 -10 -31 -53z"/>
<path d="M2926 1601 c-31 -70 -71 -234 -62 -256 7 -18 42 -16 39 2 -1 6 18 73
42 148 25 76 45 144 45 151 0 8 -8 14 -19 14 -13 0 -26 -18 -45 -59z"/>
<path d="M2214 1304 c-4 -14 -3 -29 2 -34 7 -6 146 -52 267 -87 14 -3 17 -11
13 -28 -5 -19 -1 -24 21 -29 33 -9 35 -5 58 72 16 55 17 65 4 73 -22 14 -49
11 -49 -6 0 -22 -13 -19 -158 25 -71 22 -134 40 -141 40 -6 0 -14 -12 -17 -26z"/>
<path d="M2030 1253 c0 -64 16 -106 43 -111 20 -4 20 -1 4 93 -9 52 -17 71
-30 73 -15 3 -17 -5 -17 -55z"/>
<path d="M2695 1280 c-18 -29 141 -220 183 -220 24 0 30 24 9 37 -7 4 -45 50
-86 101 -69 87 -92 105 -106 82z"/>
<path d="M2175 1179 c-4 -19 -3 -34 3 -38 6 -3 56 -19 111 -35 56 -17 101 -33
101 -36 0 -3 -63 -26 -140 -50 -135 -41 -141 -44 -148 -74 -6 -20 -5 -33 2
-37 20 -12 256 -82 260 -78 3 2 6 17 8 33 3 27 -1 30 -52 47 -30 11 -62 22
-70 25 -8 3 48 26 125 51 77 25 143 48 147 51 4 4 8 20 10 35 3 28 2 29 -152
77 -215 68 -197 65 -205 29z"/>
<path d="M2767 1048 c-51 -109 -80 -293 -47 -293 9 0 16 11 18 25 5 38 34 123
50 142 8 9 11 21 8 26 -3 5 2 31 10 58 8 26 12 54 10 61 -9 23 -33 14 -49 -19z"/>
</g>
</svg>
